HIERARCHY
ROOT Hips
{
 OFFSET 0.000000 0.000000 0.000000
 CHANNELS 6 Xposition Yposition Zposition Yrotation Xrotation Zrotation
 JOINT Chest
 {
  OFFSET 0.000000 9.585900 0.002600
  CHANNELS 3 Yrotation Xrotation Zrotation
  JOINT Chest2
  {
   OFFSET 0.000000 9.601200 -0.005300
   CHANNELS 3 Yrotation Xrotation Zrotation
   JOINT Chest3
   {
    OFFSET 0.000000 9.561800 0.000000
    CHANNELS 3 Yrotation Xrotation Zrotation
    JOINT Chest4
    {
     OFFSET 0.000000 9.552100 0.000000
     CHANNELS 3 Yrotation Xrotation Zrotation
     JOINT Neck
     {
      OFFSET 0.000000 14.453000 0.000000
      CHANNELS 3 Yrotation Xrotation Zrotation
      JOINT Head
      {
       OFFSET 0.000000 8.936500 -0.011300
       CHANNELS 3 Yrotation Xrotation Zrotation
       End Site
       {
        OFFSET 0.000000 17.073600 -0.006000
       }
      }
     }
     JOINT RightCollar
     {
      OFFSET -2.921100 9.558500 0.000000
      CHANNELS 3 Yrotation Xrotation Zrotation
      JOINT RightShoulder
      {
       OFFSET -13.519700 0.000000 0.000000
       CHANNELS 3 Yrotation Xrotation Zrotation
       JOINT RightElbow
       {
        OFFSET 0.000000 -29.696600 0.000000
        CHANNELS 3 Yrotation Xrotation Zrotation
        JOINT RightWrist
        {
         OFFSET 0.000000 -24.004700 0.000000
         CHANNELS 3 Yrotation Xrotation Zrotation
         End Site
         {
          OFFSET 0.000000 -17.728500 0.000000
         }
        }
       }
      }
     }
     JOINT LeftCollar
     {
      OFFSET 2.921100 9.558500 0.000000
      CHANNELS 3 Yrotation Xrotation Zrotation
      JOINT LeftShoulder
      {
       OFFSET 13.519700 0.000000 0.000000
       CHANNELS 3 Yrotation Xrotation Zrotation
       JOINT LeftElbow
       {
        OFFSET 0.000000 -29.696600 0.000000
        CHANNELS 3 Yrotation Xrotation Zrotation
        JOINT LeftWrist
        {
         OFFSET 0.000000 -24.004700 0.000000
         CHANNELS 3 Yrotation Xrotation Zrotation
         End Site
         {
          OFFSET 0.000000 -17.728500 0.000000
         }
        }
       }
      }
     }
    }
   }
  }
 }
 JOINT RightHip
 {
  OFFSET -7.771700 -0.012900 -0.001300
  CHANNELS 3 Yrotation Xrotation Zrotation
  JOINT RightKnee
  {
   OFFSET 0.000000 -40.869800 0.001200
   CHANNELS 3 Yrotation Xrotation Zrotation
   JOINT RightAnkle
   {
    OFFSET 0.000000 -39.717900 0.002100
    CHANNELS 3 Yrotation Xrotation Zrotation
    JOINT RightToe
    {
     OFFSET 0.000000 -4.965400 11.033500
     CHANNELS 3 Yrotation Xrotation Zrotation
     End Site
     {
      OFFSET 0.000000 -1.423100 5.872300
     }
    }
   }
  }
 }
 JOINT LeftHip
 {
  OFFSET 7.771700 -0.012900 -0.001300
  CHANNELS 3 Yrotation Xrotation Zrotation
  JOINT LeftKnee
  {
   OFFSET 0.000000 -40.869800 0.001200
   CHANNELS 3 Yrotation Xrotation Zrotation
   JOINT LeftAnkle
   {
    OFFSET 0.000000 -39.717900 0.002100
    CHANNELS 3 Yrotation Xrotation Zrotation
    JOINT LeftToe
    {
     OFFSET 0.000000 -4.965400 11.033500
     CHANNELS 3 Yrotation Xrotation Zrotation
     End Site
     {
      OFFSET 0.000000 -1.423100 5.872300
     }
    }
   }
  }
 }
}
MOTION
Frames: 16
Frame Time: 0.008333
0.000000 85.388000 0.000000 0.000000 -5.767877 0.000000 0.000000 11.653817 0.000000 0.000000 -5.885947 0.000000 0.000000 -0.000000 0.000000 0.000000 -0.000000 0.000000 0.000000 12.528835 0.000000 0.000000 0.711642 0.000000 0.000000 -0.000000 0.000000 0.000000 0.000000 -90.000000 0.000000 -2.309062 0.000000 0.000000 2.309062 0.000000 0.000000 -0.000000 0.000000 0.000000 -0.000000 90.000000 0.000000 -2.309062 0.000000 0.000000 2.309062 0.000000 0.000000 8.520406 0.000000 0.000000 1.905762 0.000000 -0.000000 -4.658285 0.000000 0.000000 -0.000000 0.000000 0.000000 8.520406 0.000000 0.000000 1.905762 0.000000 -0.000000 -4.658285 0.000000 0.000000 -0.000000 0.000000
-41.879358 52.851449 -7.416681 -176.904851 -14.839567 -1.781093 -1.087465 17.189222 1.546414 -0.134150 1.816685 0.196766 -0.220013 3.025064 0.325453 -0.941561 15.072061 1.533857 0.869671 22.668069 -3.123749 1.652981 -1.367514 -3.569945 4.861633 5.245670 -3.286239 -2.927595 -10.713167 -0.326050 -123.482804 -73.902228 147.695387 -8.444970 -25.609636 -15.230987 -1.827024 1.017885 0.638524 5.897397 -5.592366 1.268674 100.640529 -61.457093 -127.819445 3.382619 -27.557793 16.020670 3.882478 -63.687074 8.061312 177.814498 85.739804 176.384571 -13.463680 -23.578501 13.244026 0.012769 -0.039502 0.118781 4.554041 -62.031848 -4.601587 121.457368 77.767750 119.251502 -6.385401 -20.310594 -0.931356 0.019673 0.240195 -0.046797
-41.877682 52.844157 -7.408353 -176.911468 -14.837629 -1.759653 -1.036782 17.249991 1.550475 -0.130813 1.826688 0.197120 -0.222752 3.017768 0.321480 -0.900266 15.131791 1.539265 0.847747 22.673802 -3.136447 1.632332 -1.360733 -3.578713 4.926236 5.323706 -3.201301 -3.047028 -10.762562 -0.313830 -123.465011 -73.918796 147.662097 -8.441410 -25.699732 -15.214600 -1.856308 1.049155 0.568543 6.005219 -5.747771 1.263035 100.183069 -61.486364 -127.444050 3.458838 -27.550976 15.928802 3.967436 -63.701119 8.001951 177.457442 85.728258 175.983394 -13.296427 -23.599142 13.217624 0.019608 -0.023648 0.109107 4.561966 -62.040366 -4.630800 121.431512 77.755851 119.219264 -6.371579 -20.311730 -0.928683 0.003444 0.257265 -0.050672
-41.873032 52.837318 -7.396140 -176.897867 -14.823147 -1.752954 -1.032294 17.266099 1.553144 -0.118627 1.868841 0.207410 -0.221732 3.037782 0.322587 -0.890949 15.176294 1.539932 0.798523 22.688504 -3.163293 1.585431 -1.343285 -3.596712 5.017688 5.346409 -3.145769 -3.135238 -10.781429 -0.299230 -123.434197 -73.962734 147.584646 -8.456900 -25.806496 -15.214178 -1.853432 1.084368 0.507368 6.114544 -5.879743 1.223686 99.755638 -61.477439 -127.105075 3.546587 -27.530459 15.833645 3.993186 -63.728656 8.013271 177.628755 85.731383 176.147884 -13.437208 -23.588015 13.232540 0.010604 0.007322 0.115112 4.558296 -62.058414 -4.653906 121.308950 77.763215 119.118268 -6.392696 -20.300917 -0.950845 0.027904 0.282078 -0.024799
-41.869940 52.832474 -7.382069 -176.874674 -14.808052 -1.733162 -1.046174 17.280278 1.540358 -0.123016 1.875778 0.208607 -0.213858 3.121280 0.340148 -0.912959 15.201473 1.536971 0.720988 22.710948 -3.203241 1.510914 -1.316624 -3.622414 5.133036 5.324656 -3.121112 -3.184956 -10.776312 -0.275547 -123.367727 -74.027819 147.451959 -8.486099 -25.910189 -15.240401 -1.824147 1.116581 0.449174 6.210212 -5.972320 1.156139 99.415955 -61.439283 -126.838666 3.634016 -27.517713 15.750741 4.042682 -63.756046 8.019399 177.978282 85.733843 176.468965 -13.694278 -23.559826 13.295437 0.002157 0.034112 0.124858 4.548153 -62.083165 -4.694716 121.174071 77.754624 118.987801 -6.399112 -20.269415 -0.972019 0.037506 0.283139 -0.020503
-41.868389 52.830733 -7.367125 -176.827834 -14.794342 -1.706414 -1.086891 17.326023 1.525677 -0.137016 1.911767 0.216539 -0.225157 3.125042 0.337341 -0.946886 15.248845 1.538578 0.622351 22.740068 -3.254019 1.416122 -1.281932 -3.655001 5.265611 5.282287 -3.126240 -3.192112 -10.764049 -0.236926 -123.230814 -74.099313 147.244907 -8.524983 -25.998052 -15.289768 -1.775088 1.143168 0.388047 6.278562 -6.017012 1.073235 99.210164 -61.383690 -126.665485 3.708715 -27.526158 15.691346 4.057538 -63.784403 8.070074 179.448190 85.751465 177.988761 -14.399751 -23.484924 13.398456 -0.022851 0.080710 0.154963 4.556745 -62.102953 -4.777047 120.995039 77.749222 118.813890 -6.396994 -20.226364 -0.993792 0.036441 0.281068 -0.012639
-41.866106 52.832525 -7.351099 -176.776387 -14.776185 -1.683863 -1.153657 17.437600 1.529577 -0.144103 1.880440 0.202457 -0.235943 3.126267 0.334010 -0.998090 15.292260 1.539744 0.513504 22.772880 -3.311995 1.311993 -1.242580 -3.693216 5.406167 5.241783 -3.152924 -3.157482 -10.762845 -0.183120 -123.005660 -74.162584 146.952430 -8.570455 -26.070365 -15.333978 -1.716754 1.165781 0.324090 6.306855 -6.012829 0.985213 99.168496 -61.329494 -126.592597 3.767883 -27.554030 15.656913 3.964906 -63.803904 8.199206 -179.193582 85.766826 179.305447 -14.883982 -23.420121 13.489798 -0.030261 0.099890 0.165113 4.571140 -62.123529 -4.859532 120.803185 77.749947 118.624745 -6.396173 -20.180640 -1.006210 0.027698 0.274847 -0.001902
-41.860557 52.838148 -7.334783 -176.721047 -14.753328 -1.683226 -1.223073 17.482981 1.528597 -0.147062 1.872521 0.201003 -0.237155 3.116553 0.330199 -1.069924 15.380045 1.549489 0.402731 22.805565 -3.371368 1.206039 -1.203216 -3.732658 5.541434 5.208830 -3.185552 -3.087830 -10.779530 -0.123375 -122.722353 -74.212351 146.606677 -8.617649 -26.138913 -15.352694 -1.665390 1.183101 0.266330 6.286258 -5.961817 0.895470 99.288091 -61.290651 -126.608453 3.816283 -27.594950 15.641689 3.868361 -63.805425 8.186835 -179.982579 85.770963 178.385580 -14.433588 -23.469929 13.439334 -0.003058 0.069102 0.122449 4.553796 -62.146471 -4.896506 120.645217 77.763282 118.462930 -6.384148 -20.143243 -1.007582 0.008125 0.275604 0.000541
-41.863634 52.844361 -7.307643 -176.582316 -14.658494 -1.652128 -1.391404 17.458638 1.470053 -0.154000 1.883700 0.202317 -0.235687 3.086651 0.328188 -1.134137 15.464119 1.551961 0.296206 22.835303 -3.423783 1.102990 -1.167467 -3.765421 5.658719 5.178482 -3.211309 -2.994736 -10.814250 -0.065595 -122.459652 -74.252804 146.286307 -8.658615 -26.218386 -15.358484 -1.635622 1.194100 0.225232 6.213448 -5.871810 0.806426 99.542554 -61.266815 -126.692352 3.853291 -27.646011 15.639303 3.792844 -63.880747 8.082941 179.600962 85.771329 177.872888 -14.214803 -23.499222 13.424080 0.010875 0.056285 0.093318 4.606623 -62.232552 -5.067515 120.415842 77.816718 118.221884 -6.403099 -20.108406 -0.982397 0.017070 0.304517 0.014324
-41.852714 52.858608 -7.299022 -176.569281 -14.668673 -1.684627 -1.404632 17.536715 1.505875 -0.164338 1.914948 0.206455 -0.263002 3.157223 0.337616 -1.154887 15.428839 1.538909 0.200986 22.860468 -3.465935 1.009777 -1.137253 -3.789534 5.753169 5.143389 -3.228412 -2.883332 -10.863776 -0.017724 -122.303046 -74.288346 146.071341 -8.685723 -26.320347 -15.371832 -1.627752 1.200130 0.203869 6.098532 -5.760254 0.717807 99.897429 -61.252606 -126.832129 3.876850 -27.701404 15.643571 3.635729 -63.852491 8.281909 -179.787458 85.815326 178.479711 -14.452445 -23.463258 13.450411 -0.002205 0.065114 0.083550 4.566783 -62.217269 -5.003604 120.348425 77.848412 118.156709 -6.402026 -20.048730 -0.983733 0.008485 0.265003 0.025647
-41.846010 52.874454 -7.288500 -176.546940 -14.657754 -1.700240 -1.430151 17.575622 1.520174 -0.164446 1.904759 0.205154 -0.283663 3.238054 0.345580 -1.181587 15.443591 1.535854 0.125734 22.881922 -3.499725 0.936260 -1.111399 -3.809202 5.826697 5.098565 -3.239992 -2.751140 -10.918779 0.010494 -122.293317 -74.317923 145.998821 -8.698452 -26.445743 -15.397702 -1.631159 1.201856 0.200196 5.965950 -5.644418 0.629724 100.315605 -61.242109 -127.022817 3.886562 -27.752546 15.650393 3.516073 -63.836204 8.362758 -179.971657 85.849039 178.244707 -14.288616 -23.481279 13.422696 0.002141 0.058671 0.053620 4.552421 -62.219613 -4.981864 120.268828 77.876360 118.076101 -6.409026 -20.020254 -0.986190 0.010328 0.251085 0.037380
-41.849610 52.889938 -7.272412 -176.494928 -14.603013 -1.667019 -1.498420 17.537318 1.474210 -0.178593 1.982050 0.212111 -0.286652 3.236021 0.345406 -1.208588 15.478816 1.537174 0.076850 22.904308 -3.524159 0.889130 -1.084453 -3.824836 5.878770 5.015853 -3.261055 -2.598560 -10.934652 0.028130 -122.423280 -74.334787 146.067402 -8.708267 -26.580912 -15.431064 -1.634775 1.208201 0.212544 5.844964 -5.537007 0.547797 100.747390 -61.230884 -127.249558 3.880707 -27.797317 15.661091 3.486411 -63.863934 8.292033 179.366092 85.869044 177.528675 -14.114396 -23.514336 13.397697 0.041757 0.066968 0.029096 4.604862 -62.263308 -5.080501 120.046650 77.889669 117.802484 -6.382145 -19.949342 -0.939530 -0.048068 0.218486 0.010550
-41.849911 52.906979 -7.260905 -176.460670 -14.562598 -1.657919 -1.545866 17.562688 1.459141 -0.182974 2.001134 0.215368 -0.288753 3.229280 0.345703 -1.230931 15.504082 1.539741 0.071433 22.873839 -3.543989 0.857993 -0.987606 -3.821786 5.920237 4.953625 -3.277454 -2.449254 -10.945843 0.024497 -122.637707 -74.325137 146.240969 -8.726188 -26.717659 -15.463784 -1.635013 1.236575 0.237733 5.765270 -5.447774 0.480836 101.130929 -61.214122 -127.483653 3.862523 -27.830513 15.674114 3.416411 -63.876901 8.315040 179.340456 85.902111 177.478703 -14.124150 -23.523118 13.404355 0.011491 0.055907 0.005706 4.661574 -62.287347 -5.129728 119.909663 77.922262 117.638974 -6.393101 -19.905226 -0.902080 -0.069109 0.200636 0.008549
-41.841437 52.925069 -7.255175 -176.446547 -14.540643 -1.705237 -1.553608 17.602170 1.508668 -0.180023 1.989711 0.217246 -0.289651 3.214676 0.342873 -1.250940 15.536428 1.547857 0.064010 22.875409 -3.559526 0.879188 -0.895435 -3.825459 5.955002 4.950561 -3.272761 -2.320277 -10.973995 -0.010549 -122.873402 -74.278212 146.473934 -8.752333 -26.852044 -15.488353 -1.631414 1.298384 0.270859 5.742492 -5.379266 0.435271 101.421421 -61.184567 -127.698659 3.844728 -27.846126 15.681573 3.246898 -63.864505 8.450939 178.811956 85.945393 176.922512 -14.032551 -23.537235 13.389504 0.015471 0.047981 -0.017826 4.710654 -62.287277 -5.090072 119.883350 77.991685 117.652586 -6.473048 -19.900450 -0.889900 -0.009933 0.203872 0.043549
-41.839288 52.941983 -7.250448 -176.434552 -14.510784 -1.721111 -1.562256 17.617579 1.528773 -0.183555 1.975470 0.220594 -0.289082 3.211376 0.337827 -1.267930 15.538964 1.559875 0.062697 22.953970 -3.567614 0.946236 -0.851729 -3.852612 5.987054 4.976269 -3.263316 -2.220206 -10.987459 -0.056745 -123.110721 -74.195362 146.751125 -8.780941 -26.973316 -15.504599 -1.615862 1.388033 0.308517 5.773316 -5.326395 0.405422 101.595986 -61.141760 -127.875881 3.834379 -27.850576 15.684652 3.150112 -63.864773 8.485363 177.602994 85.972655 175.703095 -13.984665 -23.551298 13.368988 0.025156 0.037877 -0.034375 4.717846 -62.308125 -5.079782 119.822023 78.009416 117.589720 -6.484559 -19.872609 -0.871311 -0.014420 0.184509 0.039205
-41.846978 52.956775 -7.245527 -176.417515 -14.465123 -1.685429 -1.592635 17.600377 1.495291 -0.188928 1.961288 0.222400 -0.298487 3.232855 0.349706 -1.285413 15.505954 1.560695 0.143465 23.080327 -3.567867 0.996545 -0.835989 -3.888716 6.025485 5.016069 -3.262232 -2.150116 -10.983571 -0.104816 -123.348037 -74.084645 147.069184 -8.802096 -27.077663 -15.517354 -1.578921 1.485684 0.344735 5.843741 -5.280716 0.382647 101.649710 -61.087224 -127.999461 3.827002 -27.850745 15.686101 3.166873 -63.888049 8.395597 176.828028 85.984318 174.907165 -13.970491 -23.557277 13.379433 0.031438 0.026918 -0.043995 4.824577 -62.337878 -5.176609 119.717997 78.004060 117.422979 -6.468601 -19.837625 -0.796986 -0.078976 0.152342 -0.003130
